<svg width="87" height="87" viewBox="0 0 87 87" fill="none" xmlns="http://www.w3.org/2000/svg">
<path fill-rule="evenodd" clip-rule="evenodd" d="M57.2685 46.1648C56.6821 45.873 53.8072 44.4669 53.272 44.2711C52.7367 44.0772 52.3471 43.9812 51.9556 44.5648C51.5659 45.1445 50.4463 46.4566 50.1059 46.8443C49.7635 47.234 49.423 47.281 48.8386 46.9912C48.2542 46.6974 46.3691 46.0845 44.1357 44.1027C42.3982 42.5595 41.2234 40.654 40.883 40.0705C40.5426 39.4888 40.8456 39.1735 41.1388 38.8837C41.4025 38.6233 41.7232 38.2042 42.0164 37.8654C42.3096 37.5246 42.406 37.2818 42.6008 36.8921C42.7976 36.5043 42.6992 36.1656 42.5516 35.8738C42.406 35.582 41.2372 32.7169 40.7492 31.5517C40.2749 30.4179 39.7928 30.5726 39.4347 30.553C39.0923 30.5373 38.7027 30.5334 38.3131 30.5334C37.9235 30.5334 37.2899 30.6783 36.7546 31.2619C36.2174 31.8435 34.7082 33.2516 34.7082 36.1166C34.7082 38.9797 36.8019 41.7468 37.095 42.1365C37.3882 42.5242 41.2175 48.4032 47.0834 50.9235C48.4805 51.5228 49.5687 51.8811 50.4168 52.1475C51.8178 52.592 53.0929 52.5294 54.1004 52.3786C55.222 52.2121 57.5597 50.9705 58.0477 49.6114C58.5338 48.2524 58.5338 47.0872 58.3881 46.8443C58.2425 46.6015 57.8529 46.4566 57.2665 46.1648H57.2685ZM46.5993 60.6623H46.5914C43.1074 60.6629 39.6873 59.7308 36.6897 57.9637L35.9813 57.5446L28.6179 59.4677L30.5837 52.3237L30.1213 51.5913C28.1735 48.5057 27.1427 44.9345 27.148 41.2905C27.152 30.6176 35.877 21.9344 46.6072 21.9344C51.8021 21.9344 56.686 23.9514 60.3579 27.6096C62.169 29.4046 63.6044 31.5391 64.5812 33.8898C65.558 36.2404 66.0568 38.7605 66.0486 41.3042C66.0447 51.9771 57.3197 60.6623 46.5993 60.6623ZM63.1521 24.8307C60.984 22.6588 58.4043 20.9367 55.5626 19.7641C52.7209 18.5916 49.6736 17.992 46.5973 18.0001C33.7007 18.0001 23.2007 28.4478 23.1968 41.2885C23.1948 45.3932 24.2712 49.3999 26.3196 52.9308L23 65L35.4047 61.7609C38.8363 63.6216 42.6817 64.5965 46.5895 64.5966H46.5993C59.496 64.5966 69.996 54.1489 69.9999 41.3062C70.0094 38.2458 69.4091 35.214 68.2337 32.386C67.0583 29.5581 65.3311 26.9901 63.1521 24.8307Z" fill="url(#paint0_linear_1_62)"/>
<g filter="url(#filter0_bii_1_62)">
<circle cx="43.5" cy="43.5" r="43.5" fill="#2D303D" fill-opacity="0.2"/>
</g>
<path fill-rule="evenodd" clip-rule="evenodd" d="M51.9456 46.7753C51.5358 46.5704 49.527 45.5832 49.153 45.4457C48.779 45.3095 48.5067 45.2422 48.2331 45.6519C47.9608 46.0589 47.1785 46.9801 46.9406 47.2524C46.7013 47.526 46.4635 47.559 46.0551 47.3555C45.6467 47.1493 44.3295 46.7189 42.7689 45.3274C41.5547 44.2439 40.7339 42.906 40.496 42.4963C40.2581 42.0879 40.4699 41.8665 40.6747 41.663C40.859 41.4802 41.0831 41.1859 41.288 40.948C41.4929 40.7088 41.5602 40.5383 41.6964 40.2647C41.8339 39.9924 41.7651 39.7545 41.662 39.5497C41.5602 39.3448 40.7435 37.3332 40.4025 36.515C40.0711 35.7189 39.7342 35.8275 39.484 35.8138C39.2447 35.8028 38.9725 35.8 38.7002 35.8C38.428 35.8 37.9852 35.9018 37.6112 36.3115C37.2359 36.7199 36.1812 37.7085 36.1812 39.7202C36.1812 41.7304 37.6442 43.6733 37.8491 43.9469C38.054 44.2192 40.7297 48.3469 44.8286 50.1165C45.8048 50.5373 46.5652 50.7889 47.1578 50.9759C48.1368 51.288 49.0278 51.244 49.7318 51.1381C50.5156 51.0213 52.1491 50.1495 52.4901 49.1953C52.8297 48.241 52.8297 47.4229 52.728 47.2524C52.6262 47.0819 52.354 46.9801 51.9442 46.7753H51.9456ZM44.4903 56.9544H44.4848C42.0503 56.9548 39.6605 56.3004 37.5659 55.0596L37.0709 54.7654L31.9256 56.1156L33.2992 51.0996L32.9761 50.5854C31.6151 48.4189 30.8948 45.9115 30.8985 43.3529C30.9012 35.8592 36.998 29.7624 44.4958 29.7624C48.1258 29.7624 51.5386 31.1787 54.1043 33.7472C55.3699 35.0075 56.3729 36.5062 57.0555 38.1566C57.738 39.8071 58.0865 41.5765 58.0808 43.3625C58.0781 50.8563 51.9813 56.9544 44.4903 56.9544ZM56.0568 31.796C54.5418 30.2711 52.7393 29.0619 50.7536 28.2387C48.7679 27.4154 46.6386 26.9944 44.489 27.0001C35.4772 27.0001 28.1402 34.3357 28.1375 43.3515C28.1361 46.2335 28.8882 49.0468 30.3196 51.5259L28 60L36.668 57.7258C39.0658 59.0322 41.7529 59.7167 44.4835 59.7168H44.4903C53.5021 59.7168 60.8391 52.3811 60.8418 43.3639C60.8485 41.2152 60.429 39.0864 59.6077 37.1008C58.7863 35.1152 57.5795 33.3122 56.0568 31.796Z" fill="url(#paint1_linear_1_62)"/>
<defs>
<filter id="filter0_bii_1_62" x="-30" y="-30" width="147" height="147" filterUnits="userSpaceOnUse" color-interpolation-filters="sRGB">
<feFlood flood-opacity="0" result="BackgroundImageFix"/>
<feGaussianBlur in="BackgroundImage" stdDeviation="15"/>
<feComposite in2="SourceAlpha" operator="in" result="effect1_backgroundBlur_1_62"/>
<feBlend mode="normal" in="SourceGraphic" in2="effect1_backgroundBlur_1_62" result="shape"/>
<feColorMatrix in="SourceAlpha" type="matrix" values="0 0 0 0 0 0 0 0 0 0 0 0 0 0 0 0 0 0 127 0" result="hardAlpha"/>
<feOffset dy="2"/>
<feGaussianBlur stdDeviation="2"/>
<feComposite in2="hardAlpha" operator="arithmetic" k2="-1" k3="1"/>
<feColorMatrix type="matrix" values="0 0 0 0 1 0 0 0 0 1 0 0 0 0 1 0 0 0 0.1 0"/>
<feBlend mode="normal" in2="shape" result="effect2_innerShadow_1_62"/>
<feColorMatrix in="SourceAlpha" type="matrix" values="0 0 0 0 0 0 0 0 0 0 0 0 0 0 0 0 0 0 127 0" result="hardAlpha"/>
<feOffset dy="-5"/>
<feGaussianBlur stdDeviation="6"/>
<feComposite in2="hardAlpha" operator="arithmetic" k2="-1" k3="1"/>
<feColorMatrix type="matrix" values="0 0 0 0 0.0352941 0 0 0 0 0.866667 0 0 0 0 0.717647 0 0 0 0.35 0"/>
<feBlend mode="normal" in2="effect2_innerShadow_1_62" result="effect3_innerShadow_1_62"/>
</filter>
<linearGradient id="paint0_linear_1_62" x1="66.561" y1="15.0225" x2="19.2482" y2="50.9013" gradientUnits="userSpaceOnUse">
<stop stop-color="#25B43B"/>
<stop offset="1" stop-color="#09DDB7"/>
</linearGradient>
<linearGradient id="paint1_linear_1_62" x1="58.4388" y1="24.9094" x2="25.2626" y2="49.9475" gradientUnits="userSpaceOnUse">
<stop stop-color="#25B43B"/>
<stop offset="1" stop-color="#09DDB7"/>
<stop offset="1" stop-color="#09DDB7"/>
</linearGradient>
</defs>
</svg>
